<?xml version="1.0" encoding="UTF-8"?>
<svg id="Capa_2" data-name="Capa 2" xmlns="http://www.w3.org/2000/svg" viewBox="0 0 326.98 42.51">
  <defs>
    <style>
      .cls-1 {
        fill: #ffb600;
      }

      .cls-1, .cls-2, .cls-3, .cls-4, .cls-5, .cls-6 {
        stroke-width: 0px;
      }

      .cls-2 {
        fill: #3d3d6b;
      }

      .cls-3 {
        fill: none;
      }

      .cls-4 {
        fill: #03ade8;
      }

      .cls-5 {
        fill: #fa3054;
      }

      .cls-6 {
        fill: #adadad;
      }
    </style>
  </defs>
  <g id="Capa_1-2" data-name="Capa 1">
    <g>
      <path class="cls-4" d="M92.6,17.68l-3.93,18.52c-.28,1.28-.71,2.21-1.3,2.78-.58.57-1.55.86-2.88.86h-7.78c-2.06,0-3.67-.45-4.83-1.36-1.16-.91-1.74-2.22-1.74-3.95,0-.5.07-1.13.21-1.88l3.18-14.97h3.51l-3.05,14.34c-.14.75-.21,1.35-.21,1.8,0,2.12,1.2,3.18,3.6,3.18h6.31c.45,0,.79-.1,1.05-.31.25-.21.43-.58.54-1.11l3.8-17.89h3.51Z"/>
      <path class="cls-4" d="M93.89,30.22l.71-3.34h13.71l-.71,3.34h-13.71Z"/>
      <path class="cls-4" d="M167.31,39.84l3.93-18.52c.28-1.25.71-2.17,1.3-2.76.58-.58,1.55-.88,2.88-.88h7.53c2.06,0,3.67.45,4.83,1.36s1.74,2.22,1.74,3.95c0,.5-.07,1.13-.21,1.88l-3.18,14.97h-3.51l3.05-14.34c.17-.67.25-1.3.25-1.88,0-2.06-1.2-3.09-3.6-3.09h-6.06c-.86,0-1.41.47-1.63,1.42l-3.8,17.89h-3.51Z"/>
      <path class="cls-4" d="M200.97,39.84h-2.63c-1.98,0-3.44-.45-4.39-1.34-.95-.89-1.42-2.1-1.42-3.64,0-.67.08-1.38.25-2.13l2.63-12.21h-3.26l.59-2.84h3.26l1.5-7.11h3.51l-1.51,7.11h6.19l-.59,2.84h-6.19l-2.55,12c-.14.56-.21,1.14-.21,1.76,0,1,.31,1.71.94,2.11.63.4,1.64.61,3.03.61h1.46l-.63,2.84Z"/>
      <path class="cls-4" d="M218.11,17.43c3.32,0,5.79.61,7.42,1.82,1.63,1.21,2.45,3.16,2.45,5.83,0,1.28-.15,2.62-.46,4.01-.89,4.13-2.33,6.99-4.33,8.59-1.99,1.6-5.01,2.4-9.05,2.4-3.32,0-5.78-.62-7.4-1.86-1.62-1.24-2.42-3.21-2.42-5.92,0-1.34.15-2.69.46-4.06.89-4.1,2.33-6.93,4.31-8.49,1.98-1.56,4.99-2.34,9.03-2.34ZM208.45,28.67c-.31,1.45-.46,2.63-.46,3.55,0,1.78.5,3.07,1.51,3.85,1,.78,2.62,1.17,4.85,1.17,2.81,0,4.93-.64,6.35-1.92,1.42-1.28,2.47-3.5,3.14-6.65.31-1.45.46-2.63.46-3.55,0-1.76-.5-3-1.5-3.74-1-.74-2.62-1.11-4.85-1.11-2.84,0-4.97.62-6.38,1.86-1.41,1.24-2.45,3.42-3.11,6.54Z"/>
      <path class="cls-4" d="M228.6,39.84l3.01-14.17c.58-2.79,1.65-4.81,3.2-6.08s3.77-1.9,6.67-1.9h2.42l-.58,2.84h-1.8c-1.9,0-3.35.49-4.37,1.46s-1.75,2.49-2.19,4.56l-2.84,13.3h-3.51Z"/>
      <path class="cls-6" d="M244.57,39.84h-3.81l.96-4.52h3.81l-.96,4.52Z"/>
      <path class="cls-6" d="M265.56,39.84h-8.45c-5.32,0-7.99-2.41-7.99-7.23,0-1.28.17-2.72.5-4.31.39-1.78.84-3.28,1.34-4.49.5-1.21,1.2-2.31,2.09-3.28s2.02-1.69,3.39-2.15c1.37-.46,3.02-.69,4.98-.69h8.4l-.59,2.84h-7.78c-2.56,0-4.42.67-5.56,2.01-1.14,1.34-2.01,3.4-2.59,6.19-.33,1.5-.5,2.83-.5,3.97,0,1.45.38,2.53,1.15,3.24.77.71,2.1,1.07,3.99,1.07h8.24l-.63,2.84Z"/>
      <path class="cls-6" d="M282.41,17.43c3.32,0,5.79.61,7.42,1.82,1.63,1.21,2.45,3.16,2.45,5.83,0,1.28-.15,2.62-.46,4.01-.89,4.13-2.33,6.99-4.33,8.59-1.99,1.6-5.01,2.4-9.05,2.4-3.32,0-5.78-.62-7.4-1.86-1.62-1.24-2.42-3.21-2.42-5.92,0-1.34.15-2.69.46-4.06.89-4.1,2.33-6.93,4.31-8.49,1.98-1.56,4.99-2.34,9.03-2.34ZM272.75,28.67c-.31,1.45-.46,2.63-.46,3.55,0,1.78.5,3.07,1.51,3.85,1,.78,2.62,1.17,4.85,1.17,2.81,0,4.93-.64,6.35-1.92,1.42-1.28,2.47-3.5,3.14-6.65.31-1.45.46-2.63.46-3.55,0-1.76-.5-3-1.5-3.74-1-.74-2.62-1.11-4.85-1.11-2.84,0-4.97.62-6.38,1.86-1.41,1.24-2.45,3.42-3.11,6.54Z"/>
      <path class="cls-6" d="M292.9,39.84l3.93-18.52c.28-1.25.71-2.17,1.3-2.76.58-.58,1.55-.88,2.88-.88h19.4c2.06,0,3.67.45,4.83,1.36s1.74,2.22,1.74,3.95c0,.5-.07,1.13-.21,1.88l-3.18,14.97h-3.51l3.05-14.34c.17-.67.25-1.3.25-1.88,0-2.06-1.2-3.09-3.6-3.09h-5.64l-4.14,19.32h-3.51l4.14-19.32h-8.78c-.86,0-1.41.47-1.63,1.42l-3.8,17.89h-3.51Z"/>
      <path class="cls-3" d="M149.58,29.93s0,.02,0,.04v-.04s0,0,0,0Z"/>
      <path class="cls-3" d="M151.59,27.09h10.41c.64,0,1.06-.38,1.25-1.13v-.17c.14-.7.21-1.24.21-1.63,0-2.59-1.8-3.89-5.39-3.89-2.31,0-4.07.51-5.27,1.53-1.03.87-1.81,2.29-2.34,4.26.43.09.86.19,1.29.28-.05.25-.11.5-.16.75Z"/>
      <path class="cls-3" d="M150.21,27.09h0c.04-.18.08-.36.12-.54-.04.18-.09.35-.13.54Z"/>
      <path class="cls-4" d="M158.24,17.43c-3.71,0-6.44.81-8.19,2.42-1.76,1.62-3.07,4.47-3.93,8.57-.39,1.78-.58,3.37-.58,4.77,0,4.43,2.23,6.65,6.69,6.65h11.16l.59-2.84h-10.83c-2.62,0-3.93-1.3-3.93-3.89,0-.78.12-1.81.36-3.06,0,0,0,0,0,0,0-.03.01-.05.02-.08,0-.01,0-.02,0-.04h0c.21-.95.42-1.9.63-2.84h0c.04-.19.08-.36.13-.54.04-.16.07-.33.11-.49,0,0,0,0,.01,0,.54-1.97,1.31-3.39,2.34-4.26,1.2-1.02,2.95-1.53,5.27-1.53,3.6,0,5.39,1.3,5.39,3.89,0,.39-.07.93-.21,1.63v.17c-.2.75-.61,1.13-1.25,1.13h-10.41c-.2.95-.4,1.9-.6,2.84h11.76c1.37,0,2.33-.3,2.88-.9.56-.6.99-1.6,1.3-2.99.14-.58.21-1.39.21-2.42,0-4.13-2.97-6.19-8.91-6.19Z"/>
      <g>
        <polygon class="cls-4" points="123.12 39.84 126.63 39.84 130.56 21.47 127.05 21.47 123.12 39.84"/>
        <path class="cls-4" d="M141.87,19.04c-1.16-.91-2.77-1.36-4.83-1.36h-19.4c-1.34,0-2.3.29-2.88.88-.59.58-1.02,1.5-1.3,2.76l-3.93,18.52h3.51l3.8-17.89c.22-.95.77-1.42,1.63-1.42h17.94c2.4,0,3.6,1.03,3.6,3.09,0,.58-.08,1.21-.25,1.88l-3.05,14.34h3.51l3.18-14.97c.14-.75.21-1.38.21-1.88,0-1.73-.58-3.04-1.74-3.95Z"/>
      </g>
      <g>
        <polygon class="cls-4" points="47.53 10.57 46.86 13.75 57.12 13.75 58.69 13.75 62.58 13.75 64.1 13.75 74.41 13.75 75.08 10.57 47.53 10.57"/>
        <polygon class="cls-4" points="53.13 39.84 57.02 39.84 62.39 14.65 58.5 14.65 53.13 39.84"/>
      </g>
      <g>
        <path class="cls-2" d="M21.73,0C9.99,0,.47,9.52.47,21.25c0,3.81,1.01,7.38,2.77,10.48l-3.24,8.91,5.58-5.58h0l4.03-4.03c-2.16-2.67-3.46-6.08-3.46-9.78,0-8.6,6.97-15.58,15.58-15.58,3.71,0,7.11,1.3,9.78,3.46l4.03-4.03C31.82,1.92,27,0,21.73,0Z"/>
        <path class="cls-4" d="M43.45,1.87l-8.1,8.1h0l-1.51,1.51c2.16,2.67,3.46,6.08,3.46,9.78,0,8.6-6.97,15.58-15.58,15.58-3.71,0-7.11-1.3-9.78-3.46l-4.03,4.03c3.71,3.18,8.54,5.11,13.81,5.11,11.74,0,21.25-9.52,21.25-21.25,0-3.96-1.08-7.66-2.97-10.83l3.44-8.56Z"/>
        <path class="cls-4" d="M21.73,13.54c-4.26,0-7.71,3.45-7.71,7.71s3.45,7.71,7.71,7.71,7.71-3.45,7.71-7.71-3.45-7.71-7.71-7.71ZM21.73,25.98c-2.61,0-4.73-2.12-4.73-4.73s2.12-4.73,4.73-4.73,4.73,2.12,4.73,4.73-2.12,4.73-4.73,4.73Z"/>
        <polygon class="cls-5" points="21.73 11.14 18.88 20.81 24.57 20.81 21.73 11.14"/>
        <polygon class="cls-5" points="21.73 31.65 24.57 21.97 18.88 21.97 21.73 31.65"/>
        <circle class="cls-1" cx="21.73" cy="8.46" r="1.37"/>
      </g>
    </g>
  </g>
</svg>